<mxfile host="app.diagrams.net" agent="Mozilla/5.0 (Windows NT 10.0; Win64; x64) AppleWebKit/537.36 (KHTML, like Gecko) Chrome/135.0.0.0 Safari/537.36" version="26.2.13">
  <diagram name="Página-1" id="okkkpUhNoLXmN_cnqz4s">
    <mxGraphModel dx="1099" dy="555" grid="0" gridSize="10" guides="1" tooltips="1" connect="1" arrows="1" fold="1" page="1" pageScale="1" pageWidth="827" pageHeight="1169" math="0" shadow="0">
      <root>
        <mxCell id="0" />
        <mxCell id="1" parent="0" />
        <mxCell id="nxa2vNE4_NuQstb23Og_-3" style="edgeStyle=orthogonalEdgeStyle;rounded=0;orthogonalLoop=1;jettySize=auto;html=1;entryX=0.5;entryY=0;entryDx=0;entryDy=0;" edge="1" parent="1" source="nxa2vNE4_NuQstb23Og_-1" target="nxa2vNE4_NuQstb23Og_-2">
          <mxGeometry relative="1" as="geometry" />
        </mxCell>
        <mxCell id="nxa2vNE4_NuQstb23Og_-1" value="Cliente" style="ellipse;whiteSpace=wrap;html=1;fontSize=16;" vertex="1" parent="1">
          <mxGeometry x="360" y="211" width="120" height="80" as="geometry" />
        </mxCell>
        <mxCell id="nxa2vNE4_NuQstb23Og_-14" style="edgeStyle=orthogonalEdgeStyle;rounded=0;orthogonalLoop=1;jettySize=auto;html=1;entryX=0;entryY=0.5;entryDx=0;entryDy=0;" edge="1" parent="1" source="nxa2vNE4_NuQstb23Og_-2" target="nxa2vNE4_NuQstb23Og_-12">
          <mxGeometry relative="1" as="geometry" />
        </mxCell>
        <mxCell id="nxa2vNE4_NuQstb23Og_-15" style="edgeStyle=orthogonalEdgeStyle;rounded=0;orthogonalLoop=1;jettySize=auto;html=1;entryX=0;entryY=0.5;entryDx=0;entryDy=0;" edge="1" parent="1" source="nxa2vNE4_NuQstb23Og_-2" target="nxa2vNE4_NuQstb23Og_-9">
          <mxGeometry relative="1" as="geometry" />
        </mxCell>
        <mxCell id="nxa2vNE4_NuQstb23Og_-16" style="edgeStyle=orthogonalEdgeStyle;rounded=0;orthogonalLoop=1;jettySize=auto;html=1;entryX=1;entryY=0.5;entryDx=0;entryDy=0;" edge="1" parent="1" source="nxa2vNE4_NuQstb23Og_-2" target="nxa2vNE4_NuQstb23Og_-4">
          <mxGeometry relative="1" as="geometry" />
        </mxCell>
        <mxCell id="nxa2vNE4_NuQstb23Og_-17" style="edgeStyle=orthogonalEdgeStyle;rounded=0;orthogonalLoop=1;jettySize=auto;html=1;entryX=1;entryY=0.5;entryDx=0;entryDy=0;" edge="1" parent="1" source="nxa2vNE4_NuQstb23Og_-2" target="nxa2vNE4_NuQstb23Og_-8">
          <mxGeometry relative="1" as="geometry" />
        </mxCell>
        <mxCell id="nxa2vNE4_NuQstb23Og_-22" style="edgeStyle=orthogonalEdgeStyle;rounded=0;orthogonalLoop=1;jettySize=auto;html=1;entryX=0.25;entryY=0;entryDx=0;entryDy=0;" edge="1" parent="1" source="nxa2vNE4_NuQstb23Og_-2" target="nxa2vNE4_NuQstb23Og_-10">
          <mxGeometry relative="1" as="geometry" />
        </mxCell>
        <mxCell id="nxa2vNE4_NuQstb23Og_-2" value="Sevidor&lt;div&gt;&lt;br&gt;&lt;/div&gt;&lt;div&gt;GET/admin&lt;/div&gt;&lt;div&gt;GET/user&lt;/div&gt;&lt;div&gt;GET/edit&lt;/div&gt;" style="whiteSpace=wrap;html=1;aspect=fixed;fontSize=14;" vertex="1" parent="1">
          <mxGeometry x="361.5" y="330" width="117" height="117" as="geometry" />
        </mxCell>
        <mxCell id="nxa2vNE4_NuQstb23Og_-19" style="edgeStyle=orthogonalEdgeStyle;rounded=0;orthogonalLoop=1;jettySize=auto;html=1;entryX=0.75;entryY=1;entryDx=0;entryDy=0;" edge="1" parent="1" source="nxa2vNE4_NuQstb23Og_-4" target="nxa2vNE4_NuQstb23Og_-6">
          <mxGeometry relative="1" as="geometry" />
        </mxCell>
        <mxCell id="nxa2vNE4_NuQstb23Og_-4" value="Cliente = admin" style="rounded=0;whiteSpace=wrap;html=1;fontSize=14;" vertex="1" parent="1">
          <mxGeometry x="211" y="330" width="117" height="41" as="geometry" />
        </mxCell>
        <mxCell id="nxa2vNE4_NuQstb23Og_-6" value="Acceso Permitido a panel admin" style="shape=parallelogram;perimeter=parallelogramPerimeter;whiteSpace=wrap;html=1;fixedSize=1;fontSize=14;" vertex="1" parent="1">
          <mxGeometry x="27" y="256" width="254" height="39" as="geometry" />
        </mxCell>
        <mxCell id="nxa2vNE4_NuQstb23Og_-25" style="edgeStyle=orthogonalEdgeStyle;rounded=0;orthogonalLoop=1;jettySize=auto;html=1;entryX=0.75;entryY=0;entryDx=0;entryDy=0;" edge="1" parent="1" source="nxa2vNE4_NuQstb23Og_-8" target="nxa2vNE4_NuQstb23Og_-23">
          <mxGeometry relative="1" as="geometry" />
        </mxCell>
        <mxCell id="nxa2vNE4_NuQstb23Og_-8" value="Cliente&amp;nbsp;&lt;span style=&quot;color: rgb(236, 236, 236); font-family: &amp;quot;Google Sans&amp;quot;, Arial, sans-serif; font-size: 20px; text-align: start; background-color: rgb(16, 18, 24);&quot;&gt;≠&lt;/span&gt;&amp;nbsp;admin" style="rounded=0;whiteSpace=wrap;html=1;fontSize=14;" vertex="1" parent="1">
          <mxGeometry x="209" y="406" width="117" height="41" as="geometry" />
        </mxCell>
        <mxCell id="nxa2vNE4_NuQstb23Og_-9" value="Cliente&amp;nbsp;&lt;span style=&quot;color: rgb(236, 236, 236); font-family: &amp;quot;Google Sans&amp;quot;, Arial, sans-serif; font-size: 20px; text-align: start; background-color: rgb(16, 18, 24);&quot;&gt;≠&lt;/span&gt;&amp;nbsp;user" style="rounded=0;whiteSpace=wrap;html=1;fontSize=14;" vertex="1" parent="1">
          <mxGeometry x="512" y="404" width="117" height="41" as="geometry" />
        </mxCell>
        <mxCell id="nxa2vNE4_NuQstb23Og_-30" style="edgeStyle=orthogonalEdgeStyle;rounded=0;orthogonalLoop=1;jettySize=auto;html=1;entryX=0.5;entryY=0;entryDx=0;entryDy=0;" edge="1" parent="1" source="nxa2vNE4_NuQstb23Og_-10" target="nxa2vNE4_NuQstb23Og_-29">
          <mxGeometry relative="1" as="geometry" />
        </mxCell>
        <mxCell id="nxa2vNE4_NuQstb23Og_-10" value="Cliente&amp;nbsp;&lt;span style=&quot;color: rgb(236, 236, 236); font-family: &amp;quot;Google Sans&amp;quot;, Arial, sans-serif; font-size: 20px; text-align: start; background-color: rgb(16, 18, 24);&quot;&gt;≠&lt;/span&gt;&amp;nbsp;edit" style="rounded=0;whiteSpace=wrap;html=1;fontSize=14;" vertex="1" parent="1">
          <mxGeometry x="445" y="524" width="117" height="41" as="geometry" />
        </mxCell>
        <mxCell id="nxa2vNE4_NuQstb23Og_-11" value="Acceso Permitido a panel usuario" style="shape=parallelogram;perimeter=parallelogramPerimeter;whiteSpace=wrap;html=1;fixedSize=1;fontSize=14;" vertex="1" parent="1">
          <mxGeometry x="562" y="254" width="254" height="39" as="geometry" />
        </mxCell>
        <mxCell id="nxa2vNE4_NuQstb23Og_-13" style="edgeStyle=orthogonalEdgeStyle;rounded=0;orthogonalLoop=1;jettySize=auto;html=1;entryX=0.25;entryY=1;entryDx=0;entryDy=0;" edge="1" parent="1" source="nxa2vNE4_NuQstb23Og_-12" target="nxa2vNE4_NuQstb23Og_-11">
          <mxGeometry relative="1" as="geometry" />
        </mxCell>
        <mxCell id="nxa2vNE4_NuQstb23Og_-12" value="Cliente = user" style="rounded=0;whiteSpace=wrap;html=1;fontSize=14;" vertex="1" parent="1">
          <mxGeometry x="512" y="330" width="117" height="41" as="geometry" />
        </mxCell>
        <mxCell id="nxa2vNE4_NuQstb23Og_-28" style="edgeStyle=orthogonalEdgeStyle;rounded=0;orthogonalLoop=1;jettySize=auto;html=1;" edge="1" parent="1" source="nxa2vNE4_NuQstb23Og_-20" target="nxa2vNE4_NuQstb23Og_-27">
          <mxGeometry relative="1" as="geometry" />
        </mxCell>
        <mxCell id="nxa2vNE4_NuQstb23Og_-20" value="Cliente = edit" style="rounded=0;whiteSpace=wrap;html=1;fontSize=14;" vertex="1" parent="1">
          <mxGeometry x="281" y="524" width="117" height="41" as="geometry" />
        </mxCell>
        <mxCell id="nxa2vNE4_NuQstb23Og_-21" style="edgeStyle=orthogonalEdgeStyle;rounded=0;orthogonalLoop=1;jettySize=auto;html=1;entryX=0.822;entryY=0.029;entryDx=0;entryDy=0;entryPerimeter=0;" edge="1" parent="1" source="nxa2vNE4_NuQstb23Og_-2" target="nxa2vNE4_NuQstb23Og_-20">
          <mxGeometry relative="1" as="geometry" />
        </mxCell>
        <mxCell id="nxa2vNE4_NuQstb23Og_-23" value="Acceso Denegado" style="shape=parallelogram;perimeter=parallelogramPerimeter;whiteSpace=wrap;html=1;fixedSize=1;fontSize=14;" vertex="1" parent="1">
          <mxGeometry x="27" y="466" width="254" height="39" as="geometry" />
        </mxCell>
        <mxCell id="nxa2vNE4_NuQstb23Og_-24" value="Acceso Denegado" style="shape=parallelogram;perimeter=parallelogramPerimeter;whiteSpace=wrap;html=1;fixedSize=1;fontSize=14;" vertex="1" parent="1">
          <mxGeometry x="557" y="466" width="254" height="39" as="geometry" />
        </mxCell>
        <mxCell id="nxa2vNE4_NuQstb23Og_-26" style="edgeStyle=orthogonalEdgeStyle;rounded=0;orthogonalLoop=1;jettySize=auto;html=1;entryX=0.357;entryY=0.144;entryDx=0;entryDy=0;entryPerimeter=0;" edge="1" parent="1" source="nxa2vNE4_NuQstb23Og_-9" target="nxa2vNE4_NuQstb23Og_-24">
          <mxGeometry relative="1" as="geometry" />
        </mxCell>
        <mxCell id="nxa2vNE4_NuQstb23Og_-27" value="Acceso Permitido a panel editor" style="shape=parallelogram;perimeter=parallelogramPerimeter;whiteSpace=wrap;html=1;fixedSize=1;fontSize=14;" vertex="1" parent="1">
          <mxGeometry x="144" y="626" width="254" height="39" as="geometry" />
        </mxCell>
        <mxCell id="nxa2vNE4_NuQstb23Og_-29" value="Acceso Denegado" style="shape=parallelogram;perimeter=parallelogramPerimeter;whiteSpace=wrap;html=1;fixedSize=1;fontSize=14;" vertex="1" parent="1">
          <mxGeometry x="443.5" y="626" width="254" height="39" as="geometry" />
        </mxCell>
      </root>
    </mxGraphModel>
  </diagram>
</mxfile>
